<svg version="1.2" xmlns="http://www.w3.org/2000/svg" viewBox="0 0 287 207" width="287" height="207">
	<title>logo-gop-svg</title>
	<style>
		.s0 { fill: #fff } 
	</style>
	<g>
		<g id="XMLID_102_">
			<path id="XMLID_103_" class="s0" d="m122.3 131.3c-15.1 8.5-32.1 12.2-49.1 12.2-41 0-70.2-27.7-70.2-69.1 0-41.4 31.4-69.1 70.6-69.1 17.3 0 34 4.8 46.5 17.4l-11.8 12.2c-8.9-9.6-22.5-15.2-35.8-15.2-30 0-52.9 22.6-52.9 54.7 0 31.4 22.2 54.7 54.3 54.7 10.7 0 22.9-3 32.5-7.8v-40.2h-29.9v-14.4h45.8z"/>
		</g>
		<path id="XMLID_57_" fill-rule="evenodd" class="s0" d="m214.3 112.8c-21.4 0-38.8-17.3-38.8-38.8 0-21.4 17.4-38.7 38.8-38.7 21.5 0 38.8 17.3 38.8 38.7 0 21.5-17.3 38.8-38.8 38.8zm30.3-38.8c0-16.7-13.5-30.2-30.3-30.2-16.7 0-30.3 13.5-30.3 30.2 0 16.8 13.6 30.3 30.3 30.3 16.8 0 30.3-13.5 30.3-30.3z"/>
		<path id="XMLID_105_" fill-rule="evenodd" class="s0" d="m214.3 145.7c-39.6 0-71.6-32-71.6-71.7 0-39.6 32-71.6 71.6-71.6 39.7 0 71.7 32 71.7 71.6 0 39.7-32 71.7-71.7 71.7zm56.2-71.3c0-31-25.1-56.1-56.2-56.1-31 0-56.1 25.1-56.1 56.1 0 31.1 25.1 56.2 56.1 56.2 31.1 0 56.2-25.1 56.2-56.2z"/>
		<g id="XMLID_60_">
			<path id="XMLID_99_" fill-rule="evenodd" class="s0" d="m8.2 168.3h12.2c2.2 0 4.4 0.7 5.9 2.5 1.5 1.5 2.6 3.7 2.6 6 0 4.8-3.7 8.5-8.5 8.5h-7.8v18.4h-4.4zm15.9 8.2c0-2.3-1.9-4.1-4.1-4.1h-7.8v8.1h7.8c2.6 0 4.1-1.8 4.1-4z"/>
			<path id="XMLID_96_" fill-rule="evenodd" class="s0" d="m66.2 203.4h-5.2l-13.3-18.5h-5.2v18.5h-4v-35.1h12.2c2.2 0 4.4 0.7 5.9 2.5 1.4 1.5 2.6 3.7 2.6 6 0 4-2.6 7-6.3 8.1zm-23.7-22.9h7.8c2.2 0 4.1-1.9 4.1-4.1 0-2.2-1.9-4.1-4.1-4.1h-7.8z"/>
			<path id="XMLID_94_" class="s0" d="m73.6 168.3h22.1v4h-17.7v8.2h15.5v4.4h-15.5v14h17.4v4.5h-21.8z"/>
			<path id="XMLID_92_" class="s0" d="m115.7 203.4c-3.7-0.8-7.4-2.6-10.4-5.2l3-3.3c2.6 2.2 5.5 3.7 8.5 4.4 2.6 0.4 4.8 0.4 6.6-0.4 1.1-0.7 3.4-2.2 3.4-5.1 0-3.7-4.1-5.2-7.8-6-0.4 0-5.9-1.1-8.1-2.5q-4.5-2.8-4.5-7.8c0-1.9 0.8-3.7 1.5-5.2 1.1-1.5 2.6-2.6 4.1-3.3 2.6-1.1 5.5-1.5 8.5-1.1 3.3 0.4 6.3 2.2 9.2 4.4l-2.9 3.3c-5.2-4-10-4.4-13-2.9-1.8 1.1-3.3 2.6-3.3 4.4 0 3.4 3 4.8 7.4 5.6 1.8 0.3 5.9 1.1 8.1 2.6 3.4 1.8 4.8 4.4 4.8 7.7 0 1.9-0.3 4.1-1.8 5.6q-1.7 2.2-4.5 3.3c-1.8 1.1-3.6 1.1-5.9 1.1-0.7 0.7-1.8 0.4-2.9 0.4z"/>
			<path id="XMLID_90_" class="s0" d="m142.7 168.3h22.1v4h-17.7v8.2h15.5v4.4h-15.5v14h17.4v4.5h-21.8z"/>
			<path id="XMLID_88_" class="s0" d="m180.7 175.6v27.8h-4.4v-35.1h4.8l18.8 27.7v-27.7h4.5v35.1h-4.9z"/>
			<path id="XMLID_86_" class="s0" d="m244.6 193.8l3.3 2.5c-3.3 4.8-8.8 7.4-14.7 7.4-10 0-18.5-8.1-18.5-18.4 0-10 8.1-18.5 18.5-18.5 5.9 0 11.1 2.6 14.7 7.4l-3.3 2.6c-2.6-3.7-6.6-5.6-11.1-5.6-7.7 0-14 6.3-14 14.1 0 7.7 6.3 14 14 14 4.5 0 8.5-1.9 11.1-5.5z"/>
			<path id="XMLID_61_" class="s0" d="m259.4 168.3h22.2v4h-17.8v8.2h15.5v4.4h-15.5v14h17.4v4.5h-21.8z"/>
		</g>
	</g>
</svg>